<?xml version="1.0" encoding="UTF-8" standalone="no"?>
<!-- Created with Inkscape (http://www.inkscape.org/) -->

<svg
   version="1.1"
   id="svg1"
   width="179.65614"
   height="203.60674"
   viewBox="0 0 179.65614 203.60674"
   xmlns="http://www.w3.org/2000/svg"
   xmlns:svg="http://www.w3.org/2000/svg">
  <defs
     id="defs1" />
  <g
     id="g1"
     transform="translate(-184.22835,-1.3932637)">
    <path
       style="fill:#ffffff;stroke:none"
       d="m 243.88449,205 c 14.525,-4.56479 28.22511,-11.97617 42,-18.39221 13.08009,-6.09241 27.00772,-11.44765 38.99971,-19.55875 20.85239,-14.10406 34.14708,-35.56193 39.00029,-60.04904 -7.63193,0 -19.97992,-2.29237 -26.73622,1.83654 -6.2106,3.79543 -8.99556,14.46123 -13.43663,20.14472 -10.07297,12.89099 -24.54547,21.96201 -40.82715,24.23958 -10.49926,1.4687 -21.18833,0.0339 -31,-3.96417 -8.85203,-3.60703 -16.85962,-9.3673 -23.24311,-16.47032 C 218.54516,121.5521 212.15606,106.21117 212.31813,91 c 0.33772,-31.697495 26.99342,-59.651627 58.56636,-61.695877 7.77259,-0.50325 15.62238,0.652588 23,3.116455 8.15685,2.724106 15.54969,7.288574 21.90753,13.056732 9.28917,8.427597 15.29227,18.676483 19.09247,30.52269 h 29 C 360.57039,59.27327 353.69621,43.897461 342.28329,31.060501 306.37512,-9.3280792 241.77416,-7.9657593 206.38756,32.017303 c -7.94075,8.972199 -13.96907,19.597397 -17.68917,30.982682 -9.7108,29.719711 -3.34882,62.812945 16.64347,86.865385 5.866,7.0573 12.80576,13.25569 20.54266,18.19609 5.17276,3.30304 12.97933,5.82416 16.2282,11.35517 3.90434,6.64694 1.77182,18.14526 1.77177,25.58337 M 242.98841,77.693314 c -17.99016,6.582908 -7.90275,34.088226 9.79216,27.613376 17.99016,-6.582889 7.90274,-34.088245 -9.79216,-27.613376 m 54.01612,-0.212067 c -18.12447,5.608131 -9.32813,33.589793 8.75996,28.152763 18.18638,-5.46658 9.45154,-33.787819 -8.75996,-28.152763 z"
       id="path173" />
  </g>
</svg>
